<?xml version="1.0" encoding="UTF-8" standalone="no"?>
<!-- Created with Inkscape (http://www.inkscape.org/) -->

<svg
   xmlns:dc="http://purl.org/dc/elements/1.1/"
   xmlns:cc="http://creativecommons.org/ns#"
   xmlns:rdf="http://www.w3.org/1999/02/22-rdf-syntax-ns#"
   xmlns:svg="http://www.w3.org/2000/svg"
   xmlns="http://www.w3.org/2000/svg"
   xmlns:sodipodi="http://sodipodi.sourceforge.net/DTD/sodipodi-0.dtd"
   xmlns:inkscape="http://www.inkscape.org/namespaces/inkscape"
   width="210mm"
   height="297mm"
   viewBox="0 0 744.09448819 1052.3622047"
   id="svg2"
   version="1.1"
   inkscape:version="0.91 r13725"
   sodipodi:docname="pax_3.svg">
  <defs
     id="defs4" />
  <sodipodi:namedview
     id="base"
     pagecolor="#ffffff"
     bordercolor="#666666"
     borderopacity="1.0"
     inkscape:pageopacity="0.0"
     inkscape:pageshadow="2"
     inkscape:zoom="0.7"
     inkscape:cx="99.190722"
     inkscape:cy="478.76756"
     inkscape:document-units="px"
     inkscape:current-layer="layer1"
     showgrid="false"
     inkscape:window-width="1920"
     inkscape:window-height="1025"
     inkscape:window-x="1077"
     inkscape:window-y="225"
     inkscape:window-maximized="1" />
  <metadata
     id="metadata7">
    <rdf:RDF>
      <cc:Work
         rdf:about="">
        <dc:format>image/svg+xml</dc:format>
        <dc:type
           rdf:resource="http://purl.org/dc/dcmitype/StillImage" />
        <dc:title></dc:title>
      </cc:Work>
    </rdf:RDF>
  </metadata>
  <g
     inkscape:label="Layer 1"
     inkscape:groupmode="layer"
     id="layer1">
    <path
       style="fill:none;fill-rule:evenodd;stroke:#000000;stroke-width:1px;stroke-linecap:butt;stroke-linejoin:miter;stroke-opacity:1"
       d="m 387.85715,169.50506 c -28.54015,7.54297 -72.42717,36.2829 -82.14286,55.71429 -15.81586,31.6317 45.61555,28.57143 65.71428,28.57143 47.41409,0 88.35485,-26.92628 115.71429,-54.28572 6.79156,-6.79156 6.13949,-21.85378 11.42857,-27.14286 12.44211,-12.44211 -58.48808,-19.0754 -77.14286,-12.85714 -16.64067,5.54689 -19.60597,5.10675 -34.28571,10"
       id="path4146"
       inkscape:connector-curvature="0"
       sodipodi:nodetypes="csssssc" />
    <path
       style="fill:none;fill-rule:evenodd;stroke:#000000;stroke-width:1px;stroke-linecap:butt;stroke-linejoin:miter;stroke-opacity:1"
       d="m 304.28571,233.79078 c -4.26664,91.291 4.80262,186.83969 25.71429,275.71428 13.39862,56.94413 9.60692,122.71341 24.28571,181.42857 3.087,12.34799 0.11458,30.22916 5.71429,41.42857 9.81101,19.62202 38.15376,38.23575 55.71428,41.42858 45.76644,8.32117 89.51974,13.33742 120.00001,-17.14286 7.78808,-7.78808 35.24058,-21.36428 28.57142,-32.85714 -19.02164,-32.77973 -34.02302,-255.96644 -41.42857,-318.57143 -9.2226,-77.96603 -5.26795,-165.80386 -28.57143,-235.71429"
       id="path4150"
       inkscape:connector-curvature="0"
       sodipodi:nodetypes="csssssssc" />
    <path
       style="fill:none;fill-rule:evenodd;stroke:#000000;stroke-width:1px;stroke-linecap:butt;stroke-linejoin:miter;stroke-opacity:1"
       d="m 391.42857,339.50506 c 27.31877,60.48575 16.26976,-14.84118 -2.85714,4.28572"
       id="path4152"
       inkscape:connector-curvature="0"
       sodipodi:nodetypes="cc" />
    <path
       style="fill:none;fill-rule:evenodd;stroke:#000000;stroke-width:1px;stroke-linecap:butt;stroke-linejoin:miter;stroke-opacity:1"
       d="m 438.57143,325.21935 c -2.60482,11.00033 -7.14286,18.41126 -7.14286,30 0,39.61903 46.44207,-43.09974 7.14286,-30 z"
       id="path4154"
       inkscape:connector-curvature="0" />
    <path
       style="fill:none;fill-rule:evenodd;stroke:#000000;stroke-width:1px;stroke-linecap:butt;stroke-linejoin:miter;stroke-opacity:1"
       d="m 410,382.93363 c -1.30129,7.57901 -12.02159,22.26412 -5.71429,28.57143 1.6888,1.6888 0.64984,6.36413 2.85715,8.57143 9.00316,9.00316 26.86627,-37.14286 2.85714,-37.14286 z"
       id="path4158"
       inkscape:connector-curvature="0" />
    <path
       style="fill:none;fill-rule:evenodd;stroke:#000000;stroke-width:1px;stroke-linecap:butt;stroke-linejoin:miter;stroke-opacity:1"
       d="m 438,384.3622 c 5.63666,6.46808 10.01339,15.71429 14.28571,15.71429 25.64393,0 -3.27959,-26.72041 -14.28571,-15.71429 z"
       id="path4160"
       inkscape:connector-curvature="0" />
    <path
       style="opacity:0.01000001;fill:#00ff00;fill-opacity:0.4745098"
       d="m 448.61929,777.72308 c -38.42162,-4.28143 -57.52983,-12.11315 -76.44329,-31.33124 -11.07403,-11.25237 -13.34201,-16.88177 -14.93534,-37.07123 -0.7384,-9.35643 -2.63412,-22.8194 -4.21271,-29.91771 -3.78161,-17.00443 -6.4754,-38.56295 -10.88263,-87.09397 -4.32327,-47.60656 -6.0698,-59.824 -13.44219,-94.03178 -13.07387,-60.66245 -19.53102,-108.4528 -22.90722,-169.53965 -1.27936,-23.1479 -2.08121,-84.29608 -1.10519,-84.27974 0.19643,0.003 3.40205,1.55089 7.1236,3.43911 10.75095,5.45476 23.78173,6.92288 55.12675,6.21089 25.43484,-0.57774 29.3283,-1.00818 40.95608,-4.52789 25.78935,-7.80637 51.45196,-22.68755 72.11369,-41.81714 7.52704,-6.96889 10.62175,-11.00239 12.50075,-16.29285 1.37349,-3.86711 3.14552,-6.81502 3.93786,-6.5509 3.27751,1.0925 10.81351,42.48333 14.22039,78.10423 1.16478,12.17857 3.46181,42.71429 5.10451,67.85714 1.64269,25.14286 4.24704,57.92858 5.78744,72.85715 1.5404,14.92857 5.05427,51.57143 7.80863,81.42857 13.55439,146.92976 20.90419,201.93874 30.89994,231.26824 4.32415,12.68787 4.32525,12.69944 1.55968,16.42857 -1.52213,2.05247 -6.24225,6.51946 -10.48913,9.92665 -4.24689,3.40718 -11.90019,9.68528 -17.00733,13.95134 -11.6136,9.70096 -26.30154,17.12143 -39.28572,19.84748 -9.22788,1.93743 -33.8294,2.53869 -46.42857,1.13473 z M 418.5448,414.27891 c 3.86874,-6.8835 5.39156,-19.60264 3.02965,-25.3048 -1.6127,-3.8934 -6.59625,-7.37947 -10.54938,-7.37947 -1.92059,0 -9.62489,19.01099 -9.55244,23.57143 0.0648,4.07737 4.22336,15.50477 6.05417,16.63628 2.72506,1.68418 7.78484,-1.7708 11.018,-7.52344 z m 43.90026,-16.36194 c 5.31192,-7.26447 -12.59798,-20.72163 -21.92328,-16.47274 -4.11648,1.8756 -4.1473,2.96567 -0.23106,8.17204 7.9799,10.60873 10.21052,12.25487 15.46674,11.41408 2.74743,-0.43947 5.75685,-1.8405 6.6876,-3.11338 z m -19.90701,-35.2509 c 2.46359,-2.55357 6.10946,-8.17416 8.10194,-12.4902 7.73899,-16.76387 5.99173,-27.17411 -4.55363,-27.13078 -2.92832,0.012 -6.02671,0.49417 -6.88532,1.07143 -0.85861,0.57725 -2.96764,5.22812 -4.68672,10.33526 -5.80541,17.24697 -5.36252,32.85715 0.93223,32.85715 1.43675,0 4.62792,-2.08929 7.0915,-4.64286 z m -33.95013,-2.85714 c -0.035,-5.18356 -4.15312,-15.2232 -7.24223,-17.65613 -1.10666,-0.87157 -3.97285,-1.9548 -6.36931,-2.40716 -3.41214,-0.64406 -4.7597,-0.17796 -6.21289,2.14897 -1.59421,2.55273 -1.54667,2.85284 0.33734,2.12987 1.57137,-0.60298 3.48102,1.46432 6.73674,7.29289 7.84653,14.04727 12.81023,17.35303 12.75035,8.49156 z"
       id="path4168"
       inkscape:connector-curvature="0" />
    <path
       style="opacity:0.01000001;fill:#00ff00;fill-opacity:0.4745098"
       d="m 443.61929,777.10537 c -35.97482,-4.57134 -52.85889,-11.82982 -71.44329,-30.71353 -11.07403,-11.25237 -13.34201,-16.88177 -14.93534,-37.07123 -0.7384,-9.35643 -2.63412,-22.8194 -4.21271,-29.91771 -3.78161,-17.00443 -6.4754,-38.56295 -10.88263,-87.09397 -4.32327,-47.60656 -6.0698,-59.824 -13.44219,-94.03178 -13.07387,-60.66245 -19.53102,-108.4528 -22.90722,-169.53965 -1.27936,-23.1479 -2.08121,-84.29608 -1.10519,-84.27974 0.19643,0.003 3.40205,1.55089 7.1236,3.43911 10.75095,5.45476 23.78173,6.92288 55.12675,6.21089 25.43484,-0.57774 29.3283,-1.00818 40.95608,-4.52789 25.78935,-7.80637 51.45196,-22.68755 72.11369,-41.81714 7.52704,-6.96889 10.62175,-11.00239 12.50075,-16.29285 3.98727,-11.22641 5.02762,-9.61346 10.3641,16.06848 4.86186,23.3978 8.2877,55.30696 12.16869,113.34199 2.04918,30.64286 4.98407,67.92858 6.52197,82.85715 1.53789,14.92857 5.04971,51.57143 7.80407,81.42857 13.55439,146.92976 20.90419,201.93874 30.89994,231.26824 4.32415,12.68787 4.32525,12.69944 1.55968,16.42857 -1.52213,2.05247 -6.24225,6.51946 -10.48913,9.92665 -4.24689,3.40718 -11.90019,9.68528 -17.00733,13.95134 -11.6136,9.70096 -26.30154,17.12143 -39.28572,19.84748 -10.95255,2.29953 -35.46184,2.54592 -51.42857,0.51702 z M 418.5448,414.27891 c 3.86874,-6.8835 5.39156,-19.60264 3.02965,-25.3048 -1.6122,-3.89217 -6.62893,-7.40198 -10.52238,-7.36167 -1.90483,0.0197 -9.63745,19.04294 -9.57415,23.55363 0.0571,4.06806 4.21466,15.50267 6.04888,16.63628 2.72506,1.68418 7.78484,-1.7708 11.018,-7.52344 z m 43.90026,-16.36194 c 5.31192,-7.26447 -12.59798,-20.72163 -21.92328,-16.47274 -4.11648,1.8756 -4.1473,2.96567 -0.23106,8.17204 7.9799,10.60873 10.21052,12.25487 15.46674,11.41408 2.74743,-0.43947 5.75685,-1.8405 6.6876,-3.11338 z m -19.90701,-35.2509 c 2.46359,-2.55357 6.10946,-8.17416 8.10194,-12.4902 7.73899,-16.76387 5.99173,-27.17411 -4.55363,-27.13078 -2.92832,0.012 -6.03234,0.49417 -6.89783,1.07143 -2.21769,1.47911 -7.62505,18.46372 -8.6598,27.20055 -0.99684,8.41673 1.43152,15.99186 5.1265,15.99186 1.32197,0 4.41924,-2.08929 6.88282,-4.64286 z m -33.95013,-2.85714 c -0.035,-5.18356 -4.15312,-15.2232 -7.24223,-17.65613 -1.10666,-0.87157 -3.97285,-1.9548 -6.36931,-2.40716 -3.41214,-0.64406 -4.7597,-0.17796 -6.21289,2.14897 -1.59421,2.55273 -1.54667,2.85284 0.33734,2.12987 1.57137,-0.60298 3.48102,1.46432 6.73674,7.29289 7.84653,14.04727 12.81023,17.35303 12.75035,8.49156 z"
       id="path4170"
       inkscape:connector-curvature="0" />
    <path
       style="opacity:0.01000001;fill:#00ff00;fill-opacity:0.4745098"
       d="m 443.61929,777.10537 c -35.97482,-4.57134 -52.85889,-11.82982 -71.44329,-30.71353 -11.07403,-11.25237 -13.34201,-16.88177 -14.93534,-37.07123 -0.7384,-9.35643 -2.63412,-22.8194 -4.21271,-29.91771 -3.78161,-17.00443 -6.4754,-38.56295 -10.88263,-87.09397 -4.32327,-47.60656 -6.0698,-59.824 -13.44219,-94.03178 -13.07387,-60.66245 -19.53102,-108.4528 -22.90722,-169.53965 -1.27936,-23.1479 -2.08121,-84.29608 -1.10519,-84.27974 0.19643,0.003 3.40205,1.55089 7.1236,3.43911 10.75095,5.45476 23.78173,6.92288 55.12675,6.21089 25.43484,-0.57774 29.3283,-1.00818 40.95608,-4.52789 25.78935,-7.80637 51.45196,-22.68755 72.11369,-41.81714 7.52704,-6.96889 10.62175,-11.00239 12.50075,-16.29285 1.37349,-3.86711 3.14475,-6.81527 3.93613,-6.55148 2.01999,0.67333 7.18367,23.72102 10.61753,47.39053 3.0837,21.25574 5.77839,52.42225 9.44896,109.28571 1.24258,19.25 3.5168,47.21429 5.05378,62.14286 1.53699,14.92857 5.04807,51.57143 7.80243,81.42857 13.55439,146.92976 20.90419,201.93874 30.89994,231.26824 4.32415,12.68787 4.32525,12.69944 1.55968,16.42857 -1.52213,2.05247 -6.24225,6.51946 -10.48913,9.92665 -4.24689,3.40718 -11.90019,9.68528 -17.00733,13.95134 -11.6136,9.70096 -26.30154,17.12143 -39.28572,19.84748 -10.95255,2.29953 -35.46184,2.54592 -51.42857,0.51702 z M 418.5448,414.27891 c 3.86874,-6.8835 5.39156,-19.60264 3.02965,-25.3048 -1.6122,-3.89217 -6.62893,-7.40198 -10.52238,-7.36167 -1.90483,0.0197 -9.63745,19.04294 -9.57415,23.55363 0.0571,4.06806 4.21466,15.50267 6.04888,16.63628 2.72506,1.68418 7.78484,-1.7708 11.018,-7.52344 z m 43.90026,-16.36194 c 5.31192,-7.26447 -12.59798,-20.72163 -21.92328,-16.47274 -4.11648,1.8756 -4.1473,2.96567 -0.23106,8.17204 7.9799,10.60873 10.21052,12.25487 15.46674,11.41408 2.74743,-0.43947 5.75685,-1.8405 6.6876,-3.11338 z m -19.90701,-35.2509 c 2.46359,-2.55357 6.10946,-8.17416 8.10194,-12.4902 7.73899,-16.76387 5.99173,-27.17411 -4.55363,-27.13078 -2.92832,0.012 -6.03234,0.49417 -6.89783,1.07143 -2.21769,1.47911 -7.62505,18.46372 -8.6598,27.20055 -0.99684,8.41673 1.43152,15.99186 5.1265,15.99186 1.32197,0 4.41924,-2.08929 6.88282,-4.64286 z m -33.95013,-2.85714 c -0.035,-5.18356 -4.15312,-15.2232 -7.24223,-17.65613 -1.10666,-0.87157 -3.97285,-1.9548 -6.36931,-2.40716 -3.41214,-0.64406 -4.7597,-0.17796 -6.21289,2.14897 -1.59421,2.55273 -1.54667,2.85284 0.33734,2.12987 1.57137,-0.60298 3.48102,1.46432 6.73674,7.29289 7.84653,14.04727 12.81023,17.35303 12.75035,8.49156 z"
       id="path4172"
       inkscape:connector-curvature="0" />
    <path
       style="opacity:0.01000001;fill:#00ff00;fill-opacity:0.4745098"
       d="m 443.61929,777.10537 c -35.97482,-4.57134 -52.85889,-11.82982 -71.44329,-30.71353 -11.07403,-11.25237 -13.34201,-16.88177 -14.93534,-37.07123 -0.7384,-9.35643 -2.63412,-22.8194 -4.21271,-29.91771 -3.78161,-17.00443 -6.4754,-38.56295 -10.88263,-87.09397 -4.32327,-47.60656 -6.0698,-59.824 -13.44219,-94.03178 -13.07387,-60.66245 -19.53102,-108.4528 -22.90722,-169.53965 -1.27936,-23.1479 -2.08121,-84.29608 -1.10519,-84.27974 0.19643,0.003 3.40205,1.55089 7.1236,3.43911 10.75095,5.45476 23.78173,6.92288 55.12675,6.21089 25.43484,-0.57774 29.3283,-1.00818 40.95608,-4.52789 25.78935,-7.80637 51.45196,-22.68755 72.11369,-41.81714 7.52704,-6.96889 10.62175,-11.00239 12.50075,-16.29285 1.37349,-3.86711 3.14475,-6.81527 3.93613,-6.55148 2.01999,0.67333 7.18367,23.72102 10.61753,47.39053 3.0837,21.25574 5.77839,52.42225 9.44896,109.28571 1.24258,19.25 3.5168,47.21429 5.05378,62.14286 1.53699,14.92857 5.04807,51.57143 7.80243,81.42857 13.55439,146.92976 20.90419,201.93874 30.89994,231.26824 4.32415,12.68787 4.32525,12.69944 1.55968,16.42857 -1.52213,2.05247 -6.24225,6.51946 -10.48913,9.92665 -4.24689,3.40718 -11.90019,9.68528 -17.00733,13.95134 -11.6136,9.70096 -26.30154,17.12143 -39.28572,19.84748 -10.95255,2.29953 -35.46184,2.54592 -51.42857,0.51702 z M 418.5448,414.27891 c 3.86874,-6.8835 5.39156,-19.60264 3.02965,-25.3048 -1.6122,-3.89217 -6.62893,-7.40198 -10.52238,-7.36167 -1.90483,0.0197 -9.63745,19.04294 -9.57415,23.55363 0.0571,4.06806 4.21466,15.50267 6.04888,16.63628 2.72506,1.68418 7.78484,-1.7708 11.018,-7.52344 z m 43.90026,-16.36194 c 5.31192,-7.26447 -12.59798,-20.72163 -21.92328,-16.47274 -4.11648,1.8756 -4.1473,2.96567 -0.23106,8.17204 7.9799,10.60873 10.21052,12.25487 15.46674,11.41408 2.74743,-0.43947 5.75685,-1.8405 6.6876,-3.11338 z m -19.90701,-35.2509 c 2.46359,-2.55357 6.10946,-8.17416 8.10194,-12.4902 7.73899,-16.76387 5.99173,-27.17411 -4.55363,-27.13078 -2.92832,0.012 -6.03234,0.49417 -6.89783,1.07143 -2.21769,1.47911 -7.62505,18.46372 -8.6598,27.20055 -0.99684,8.41673 1.43152,15.99186 5.1265,15.99186 1.32197,0 4.41924,-2.08929 6.88282,-4.64286 z m -33.95013,-2.85714 c -0.035,-5.18356 -4.15312,-15.2232 -7.24223,-17.65613 -1.10666,-0.87157 -3.97285,-1.9548 -6.36931,-2.40716 -3.41214,-0.64406 -4.7597,-0.17796 -6.21289,2.14897 -1.59421,2.55273 -1.54667,2.85284 0.33734,2.12987 1.57137,-0.60298 3.48102,1.46432 6.73674,7.29289 7.84653,14.04727 12.81023,17.35303 12.75035,8.49156 z"
       id="path4174"
       inkscape:connector-curvature="0" />
  </g>
</svg>
